<?xml version="1.0" encoding="UTF-8"?>
<!-- Created with Inkscape (http://www.inkscape.org/) -->
<svg width="210mm" height="297mm" version="1.1" viewBox="0 0 210 297"
  xmlns="http://www.w3.org/2000/svg">
  <g transform="matrix(.3449 0 0 .33447 -77.145 -1.3587)">
    <path
      d="m499.42 224.52c0.026 3.176-0.363 7.711 1.938 10.262 2.417 2.678 7.762 2.538 11.062 3.009 9.99 1.424 25.07 2.085 30.721-8.286 1.144-2.098 1.853-4.611 2.08-6.985 2.135-22.326-24.477-11.202-32.139-22.278-2.666-3.854 2.088-6.707 5.339-7.378 8.013-1.654 16.463 1.246 23.999 3.656 0.367-2.909 1.707-6.908-0.032-9.58-2.206-3.391-7.49-3.125-11.007-3.564-10.599-1.323-26.426-2.479-32.952 8.159-13.612 22.191 21.784 19.62 29.658 27.554 8.761 8.828-12.483 9.491-16.667 8.543-4.046-0.917-7.916-2.418-12-3.112m-77-24 17 51c12.421-1.834 31.673-6.995 40.532-16.301 11.804-12.399 9.124-34.976-7.532-41.719-15.629-6.327-35.106 2.174-50 7.02m174-8c-2.049 7.273-3.55 14.67-5.373 22-1.162 4.671-2.252 9.344-3.473 14-1.96 7.478-5.881 15.997 3.846 18.4 1.795 0.444 3.845 1.003 5.487-0.188 2.691-1.953 3.243-7.236 4.172-10.212 2.908-9.317 5.817-18.651 8.621-28 0.869-2.898 3.602-8.577 1.652-11.411-2.191-3.185-11.318-4.057-14.932-4.589m31 9-16 51 13 5 13-32h1c0.828 10.492-1.159 32.844 4.988 41.468 2.623 3.678 8.98 5.804 13.012 7.532 8.866-14.483 21.848-30.833 27-47l-14-7-18 31-3-29-2.742-13.49-18.258-7.51m-186 3c5.94-1.225 11.872-2.753 18-1.786 14.329 2.261 15.323 22.695 4.985 30.137-2.903 2.09-10.886 6.136-14.131 3.006-3.627-3.499-4.224-12.643-5.564-17.357-1.318-4.638-2.87-9.183-3.29-14m-52 10.465c-12.248 2.208-26.613 11.018-30.211 23.535-5.74 19.97 13.776 38.175 33.211 34.532 12.252-2.296 24.72-11.244 28.211-23.532 5.643-19.859-11.462-38.096-31.211-34.535m0 11.125c19.732-0.311 24.298 35.835 2 35.808-20.424-0.025-25.381-35.439-2-35.808m309.18 13.665c-3.24 1.19-5.439 6.096-7.325 8.745-5.388 7.565-10.408 15.384-15.719 23.001-1.899 2.723-5.968 7.204-5.262 10.825 0.815 4.176 7.992 7.479 11.122 9.804 11.001 8.172 22.745 16.559 37 11.276 27.74-10.281 15.608-38.618-1-52.291-3.657-3.011-13.654-13.255-18.816-11.36m-198.18 8.745h-1l-4-5 1 15-5-2 9 27-3-7h-1v11c-4.994 0.164-9.253 3.147-5.821 8.657 2.3 3.691 7.307 3.445 10.442 6.046 5.531 4.589 7.322 12.519 7.379 19.297 7.721-0.609 14.77 0.059 13 10 4.677 0.598 4.435 8.35 0 9l1 3-6-8-5-1-3 7-1-19-7 4c-0.118-9.425-2.131-18.519-12-22l1 10h4v1h-5l7 12 3-1 0.765 16 7.235 17 1-7h1l1 13h2l-6 4-1-4 3 2h1l-4-5 2 1v-1l-8-14 6 17-7-6c-5.791 0.356-8.971 0.675-10 7 5.382 1.755 9.518 2.765 10 9h-5l-1 15 7 2c-1.807 7.413 6.651 9.688 12 6 5.271 8.588 6.588 14.219 4 24h-1c-0.595-3.71-1.313-5.806-5-7l-6.667 10-0.333 19h1l-1 4 9 1 7-5-2.466 19 4.407 18-2.941 19c-11.438-11.417-3.908-33.651-9-48l-10 3-1-17-3 1-8-25h1l8 17h1c1.196-12.268 1.412-20.166-6-31h-1l-3 2-8-10h-1l-4 1v3c-10.866 4.369-5.954 15.1 2 20l-1-6c8.546 3.455 13.801 18.971 7 26-0.741-7.205-9.275-13.363-15.134-17.074-2.772-1.756-8.265-2.954-8.866 1.074l-8-3 3 25-6-11 3 2-7-19c1.038-4.392 0.485-7.053-3-10l2 20 3-1-7 14 6-1c-3.675 7.771 5.236 25.956 13 29 1.516-5.527-1.334-9.569-1.797-15-0.725-8.5 5.307-16.517-1.203-24l3-1 7.429 16.471 11.571 10.529h2l-1-4 17 33c4.169-7.466-6.998-28.26-10-36h-1v3c-5.27-1.529-5.779-5.115-7-10 11.116-2.306 15.74 20.47 17 29h1v-2h1l8.169 14.133 1.296 23.403 8.535 12.464c-2.978 0-7.506 2.623-10 2-7.048-1.762-12.233-12.18-19-15-4.165-1.735-13.581-0.265-17-3-1.185-0.948-3.774-6.451-3-8 1.733-3.466 5.531-1.125 5 1l23 10c-0.33-7.566-1.298-20.498-6.005-26.701-3.974-5.239-9.882-8.465-13.686-14.26-1.82-2.773-6.053-14.611-9.294-14.694-5.701-0.146 0.084 10.218 1.985 11.655-2.823 12.505 4.195 18.8 10 29l-17-15c-1.569 4.564-2.369 9.235 3 11l-1 4-4-1-1-9-3 2-1-3c-9.103-3.926-14.96-26.943-19-36h-1c-2.109 7.134 0.043 14.052 2 21-4.458-3.819-17.417-20.259-17.888-26-0.413-5.029 4.129-9.382 3.081-15-2.867-15.37-7.054-31.333-2.931-47.286 2.129-8.234 10.387-15.494 11.402-23.699 1.967-15.895-12.101-27.122 2.336-42.015l1 5 4-2c-1.65 5.206-5.33 14.234 0 18l2-11h1l8 16 7 4 1-15-8 1c4.832-4.351 10.932-7.085 12-14l-7-2c-0.664 1.631-1.218 3.468-2.145 4.977-9.213 14.989-10.699-17.388-12.034-19.937-1.831-3.495-5.413-5.417-8.821-7.04l1-16-16-2c1.061 3.698 0.784 9.585 3.799 12.338 4.616 4.213 3.213-5.389 2.201-7.338 9.098 3.623 1.753 24.229 13 19l2 11c-5.852 1.996-10.957 4.404-14 10-6.446-5.157-7.905 2.725-13.785 1.252-4.736-1.186 0.782-13.166 0.785-17.252h-3v4c-6.745-1.091-9.7-10.966-14-16h-1l1 3-3 8h2l-1 3 3-1 1 3h1v-3l3 4c-2.033 0.025-19.373 1.772-13.338 6.986 3.861 3.336 13.332-1.683 17.338-2.986 0.859 4.202-2.512 11.521-0.865 14.586 4.372 8.134 13.874 0.431 14.865-5.586l5 7c-8.547 1.783-5.547 12.919 0 17v1l-4 6c7.896 2.897 5.499 11.823 3 18l-3-1-1 12h-1v-2h-1l-1 42h-1l-7-30c-14.74-6.711-9.037-14.146-9-27l-10 1 2 13h-1c-2.017-3.879-4.633-5.5-9-5l10 15 7 8-12-5c1.008 7.335 1.13 15.975 2.924 23 0.948 3.714 3.634 8.921 0.473 12.301-4.228 4.521-10.486 1.564-15.397 3.699l1-3-3 1 14 9c-3.085 1.48-7.256 6.85-2 8l2-13 8-1v1l-4 3 2-1v1l-2 4 7 1v-4h1c4.886 9.349 11.182 5.979 18.09 11.369 8.748 6.827 12.959 15.587 18.91 24.631-13.048-7.191-23.682-12.575-34-24v6c-4.911-1.661-9.985-5.144-15-6.093-2.417-0.458-5.226 1.05-7.347-0.615-4.437-3.481-9.069-19.901-8.653-25.292h1v5h1c4.524-11.799 1.514-20.234 3.21-32 1.122-7.785 6.947-15.222-0.21-22l-3 17c-14.501-4.642-11.673-17.666-15-29l-2 1c-5.983-7.707-3.181 13.786-3 16h-1l-2-7-3 1c0.599 4.576 2.015 7.7 7 6l2 1 10.301 21 0.699 14 3-2 1 10c-7.036-7.793-16.845-19.629-27-23l-3 12c-15.419 1.163-7.205 13.299-9 22l5 1c2.223-5.087 4.28-7.52 2-13l5-3v-1l-2-2 6-4c4.89 3.687 7.945 4.424 14 4l-3 9h-1l-6-6-4 14 5-1 1 6-8 2c-2.189-3.312-5.122-4.225-9-4v1h3c-1.305 7.827-8.99-2.269-11-3-3.25-1.182-2.8 1.55-5 1 2.494 12.325 17.347 16.535 28 19l1 18c-8.404-6.341-8.801-20.128-21-19l1 7c-8.636 1.86 2.857 23.096 10 24l-7-18 8.895 15.721 12.105 7.279-2-3 9 2h13v-1l-9-8h3l-1-3 2 2 3-1 7 10v1l-2 2c3.147-1.574 11.731-0.922 11 2l14-7c-9.64 16.601 10.305 24.129 24 25v1l-9 8h11l-3-4 4 4 11-5-2-2v-1l7 1-3-5 5-9c-5.556-1.207-10.547-0.56-13 5h1l1-3h1l-7 9 4-4-1-5h-3l1-5-4 2 3-8 5 1-2 9 4-2v-1h-3l2-5c1.768-0.297 8.153-0.758 6 2v1c8.69-0.452 21.08 11.527 22 20h-8v1l11 3-2-2v-1l2-2 19 7v1l-13-3h-1l-3 2v1h2v1l-8.566-0.357-3.432 6.267-10.002 13.09 21 4v-14l-3 1c2.639-3.731 5.217 0.146 9.035-0.452 3.212-0.504 5.165-3.192 8.116-4.125 3.121-0.987 5.182 1.667 3.901 4.579-1.779 4.045-13.599 12.811-5.493 17.912 3.361 2.114 5.349-2.61 6.287-4.918 2.701-6.644 5.516-10.387 1.154-16.996 8.323 5.437 11.497 10.95 22 9l3 11-6 4c3.512-1.297 5.232-1.746 8 1l-4-1-8 7 14-3-4 28c-4.671-3.382-6.493-6.307-5-12h1l-1 3 2-11-10-3h-1c-0.916-4.21-2.946-5.094-7-6-0.436 6.193 0.364 8.046 4 13l-4 2-1-3 2 1-19-23 2 5-10-2v8l-6-6h-4l-1 5-2-4c-7.612-4.078-19.467-21.661-13-29l-1-3c5.179 3.703 13.745 11.814 16 1l-8-2v-6l-5 3-2-1h-1v1l2 1-8 3-5 4 1 4h1l4-5c-2.443 6.343-1.454 22.514-11 20l-2 1-1 3 5 1v3l5-1 10 8-1-3c2.844 2.45 4.108 4.286 3 8h-1c-2.973-4.569-5.838-4.912-11-4 6.014 9.1 20.012 1.964 28 10h-3l-6.014 9.56-12.986 1.44-3-3v-1c4.534-1.5 5.012-6.47 1-9-1.92 5.644-5.758 9.791-12 9-5.047 8.179-10.836 10.5-20 7l-2 4-1-3-6-1v-1l11-2 4 4h1l1-2-18-25c-5.269 1.706-6.863 5.109-9 10l4-2 9 8v1c-6.304 0.275-18.334 1.932-19.353 10.085-1.313 10.512 14.451 11.47 20.353 7.915v-2l-11-5h4l-2-4 4-2 1 3h-2l8 9c4.841-1.973 19.119-7.923 18 2l-6-3 1 4-3 1 2 5 9-1v-8c3.126 0.77 7.558 2.344 10.741 1.323 4.317-1.386 6.856-6.432 11.942-2.464 7.865 6.136 1.644 19.839 13.317 21.141l3-16h1c4.519 15.374 17.683 17.92 32 23.388 3.97 1.516 9.006 1.559 12 4.612h1c-1.553-4.462-5.961-4.692-10-6.309-8.949-3.583-27.871-7.178-30-17.691 7.946-0.028 12.964-2.606 10-11l22 11h1l2-1-6-6 10 4-2-1v1l4 8h4c1e-3 6.466 4.204 22.642-2.433 26.958-2.698 1.754-7.554 0.234-10.567 0.037-3.361-0.219-5.292-1.047-8-2.995l4 2c-3.016-4.785-7.031-2.952-11.83-2.906-9.301 0.09-20.703 6.877-30.077 4.114-8.305-2.449-9.406-14.66-18.093-17.208l2 5 7 8h-1l-2-4h-1l3 6c-8.38 1.244-9.085-5.441-15-9l-1 10c-6.466-2.8-28.267-9.478-23-20v-1l-7-6 4 9c-8.712-4.09-16.49-5-26-5v1c9.667 0.2 16.788 2.422 24 9l-16-3v1l5 1v1l-27-4 4-7v-1l-9 1 1 5c-14.434-3.744-35.741-3.873-43-19l-6 1c1.913 9.26 13.708 14.996 22 17v1l-31 6c7.153 17.164 34.497 4.812 49 2l-5 8 22-11-3 4c6.703-1.54 15.046-0.433 21 3h1l10-2c4.532 5.612 4.426 5.381 3 13 5.642-0.187 8.619-2.964 11-8l15 5-4 7c16.633 1.324 36.794-0.083 51 8l-1-7 42-3c-4.8 15.11-3.43 32.359-12.598 45.996-7.499 11.155-18.403 10.945-29.402 16.431-9.677 4.828-16.383 14.539-27 17.414-18.148 4.915-40.993-3.341-60-1.841v1l14 8.128 42-1.958 19 6.83v-1l-3-3 6-2v-1l-3-2h-1l1 3-12-1 58-27v1l-13.289 11.566-8.711 5.434 1 1 10-1 1-2 1 1c-6.307 7.394-13.983 20.463-25 21.113-3.102 0.182-5.921-1.869-9-2.113l8 5-4 5-10-2.607-22-11.393v2h5l-2 2v1l19 9-5 1v1l2 1-5 3c5.918 4.427 11.224 4.205 17 0 0.493 3.929 7.391 4.207 11 5l3-5-3 3-11-3v-1c5.689-1.149 9.417-5.997 15-7.5 6.442-1.735 14.253 0.972 21 0.33 5.13-0.488 12.348-2.701 15.935 2.303 3.979 5.55 1.082 13.575 1.065 19.867h1l3-12 42 11c-8.489-12.959-29.946-5.134-30-24l-6 6c3.293 0.845 4.032 2.722 4 6l-2-4-3 2 1-3h-5c0.453-4.626 3.171-6.683 7-9v-1l-10 1 1-11c-4.673 3.026-3.32 8.864-7.34 12.053-5.199 4.125-26.705 3.701-31.66-0.053l3 1c1.131-7.567 12.253-17.872 18-23l3 9 2-4 2 1c-0.316-2.597-2.064-6.233-1.268-8.772 1.59-5.065 14.009-3.444 18.268-4.228l-1 6 4-4h1v17h-1l-3-3-2 3v1l5-1 3 6v1l-2 2 27-2c-4.725 0.304-10.728 0.892-11-5l-4-1v5c-11.807-0.285-8.929-6.378-8-15l11 9c-1.502-13.423 17.543 3.691 22 6v2l-8 2v1c8.88 2.174 17.063 2.773 26 5.75 12.083 4.026 15.9 11.057 29 5.25l-17-10-3 1-8-3v-1l56-10.996 35-8.004v-1h-9v-1l15-2v-1c-33.625 0-64.115 15.84-97 10l2-3c-9.963 0.647-15.854-5.301-22.385-12.152-13.608-14.275-17.834-25.348-19.784-44.848-0.549-5.492-3.565-14.562-1.228-19.772 1.502-3.347 6.234-3.552 9.397-3.942 8.374-1.032 27.119-4.553 34 0.714h1c5.175-4.824 9.872-1.16 13 4h8l-6-2-2-6c27.835 3e-3 55.367-2.134 83-2.001 13.586 0.066 25.747-2.237 39 2.001l2-2 1 3h2l24-7-44-1v-1l12-6-1 3c7.753 2.103 35.076 4.925 38-4h-10v-1l7-2v-1l-18 1 1-3-11-1v-1l5-2 1 3 11-11-20 3v-1l2-1-4-2-1 1-6 15h1v-2h1v6l-5-1-3 2v-8l-22 10-4 2 12-12-1-5h-6c-1.692 5.425-7.931 8.144-13 10 0.746-2.946 1.197-4.311-2-5 1.034 4.983-0.46 6.936-5 9l-1-9c-4.72 1.247-6.624 3.072-7 8h-1l-1-2-2 3 3-1v1l-5 3v-2l-14 4v-1l8-1v-1h-6l11-10c-10.5-2.4-10.93 2.315-20 5l1 2h-1l-7 2 6-2c-3.75 5.197-7.838 5.876-14 6l3-4-5 4-12-2-6 2-3-2c0 4.19-19.801 3-24 3-6.359 0-22.583 4.816-27.833 1.5-3.141-1.984-1.871-6.459-2.167-9.5-1.146-11.783 1.461-15.219 7.167-25 3.589-6.152 6.952-10.631 12.833-15l-1 8c5.792 0.148 10.401 2.825 11-5l12 2-13-6c5.668 1.35 15.095 5.413 20 2l6 10-4-1c-2.285 4.582-6.83 9.56-1 13l-2 1v1l18 2c-0.286-3.43 1.914-6.772 1.299-10-1.112-5.834-7.844-9.401-0.299-14l-3 3 3 4-2-2v-1l7-3c-6.145 8.304-3.19 11.653 6 11l-1-4 4 1v-1c-2.973-1.784-6.705-8.176-2-7l-2-10-13 3c4.942-5.71 12.669-10.555 12-19 10.429 2.397 16.398-5.167 24-11-2.112 10.439-18.286 13.732-10 25l-3 1v1l13 1-9-14c5.347 2.788 11.518 2.31 17 0v12l-27 14 7 15 6 2v-7l13-3-13-4 12-15h1v9l12-5c2.04 12.419-10.201 12.151-13 22 6.773-1.015 22.29-6.092 21.664-14.975-0.307-4.34-4.97-5.781-6.068-9.53-0.932-3.182 2.146-3.93 4.404-3.495l5-9c-1.414 3.317-3.487 8.109-1.593 11.652 3.42 6.396 8.868-0.108 8.979-4.656 0.103-4.254-2.467-7.942-3.386-11.996 5.083-1.569 9.374-9.413 4-13 2.348-4.038-0.219-6.789-3-10 6.465-0.816 17.737 3.455 20-4l-33 4v-1c4.329-1.507 9.804-6.738 3-9l6-10-8-6c-0.021-5.944-4.794-13.08-8.843-4.046-2.102 4.69 0.331 15.275 1.843 20.046l-8 3 9-1v6l-11 4c-3.722-7.231-10.542-0.668-15 3l4-7-4 2 1-2h-1v4l-8 4c3.4-5.121 25.055-21.493 9-24v-5l-11.911-4.303-18.089 13.303-2-10c12.996-3.744 22.039-13.19 36-10l-3-3v-1l22-7 13-4.899 28-6.101v8h-3v3c8.66 2.48 8.981-5.257 9-12l25.004-3.521 13.996 4.521c1.93-9.355-6.581-11.668-14.17-11.92-16.212-0.537-29.287 8.79-44.83 8.92 9.228-18.212 37.98-9.102 48-24l-3-2h-4c3.069-2.112 4.569-3.207 4-7l-20 8c3.664-6.887 1.291-16.247-7-18 0.172 3.943 3.3 8.547 3.003 12.05-0.329 3.881-6.99 6.262-3.003 9.95v1c-3.473 1.717-5.621 3.646-9 1l-6 3 2-13h-1l-8 5 8-11-7 4 1-3-4 1c2.022-13.989 7.444-2.445 13.736-6.712 3.745-2.54 7.265-13.932 8.264-18.288-4.971-1.183-10.13-1.913-13 3-5.129-0.442-8.008 3.181-11 7l-3-2 1 3-3 3 7-1c-1.522 6.956-6.736 10.985-13 14 0.598 3.53 2.533 7.383 2.047 11-0.631 4.695-5.14 9.493-8.061 13-10.887 13.071-17.965 15.874-33.986 19l3 5-10.961-0.383-9.039 4.383v-1h3c2.302-11.236 14.318-15.057 22-22 0.53-5.665 4.508-9.779 9-13v-13l-17 8c0.973-6.303 17.481-20.1 11-26v-5c5.633-2.598 6.933-5.998 7-12l-13 14h-1l9-40-19 6c0.18-5.554-3.113-5.942-8-6 4.748-9.901 5.435-11.001 16-16l3 6-3 1 2 3-10 6 6-4 2 2c8.334-4.38 14.738-0.701 11-13l-4 1v-1c4.677-2.256 5.771-4.966 5-10h1l1 5 9-4-11 8v1c13.195 11.875 8.74 26.472 5 42 7.788-5.132 8.409-8 19-8l3 5h1l-1-7-6-1 2-8-4 8h-1l-1-2-1 3h-1l4-23h1c1.429 4.884 11.143 8.654 16 9-2.8-9.345-7.25-12.208-16-9l5-22c-10.85-3.256 2.675-16.6 4-23-7.323-0.848-1.827-10.158-3-15-10.808 3.492-17.633 24.798-14 35h2l2-4h1l-3 9-3-6h-2l-2 5-9-19 4-1 1-10-6 2c2.592-9.051-5.794-7.786-7 0h-1l1-7h-1l-1 2-2-21-5 3 10-10-1-5-12 11-3-1-4 6h9l4.273 20.043 2.585 15.744 14.142 13.213-7 4 3-5-1-1-1 2c-8.513-2.481-9.903 7.457-17 10l-5-4-1 3h-1l1-9c5.241-1.108 8.001-4.652 7-10-4.783 0.528-8.139-0.048-10 5h-1l-4.744-9.089 4.744-20.911h-1l-1 2-1-19-4 2 1-12-5 2-6-5 4 23h1l5-6c-4.099 13.897-2.413 29.25-15 40l-1-6c-5.428 3.364-6.774 7.942-5 14l-4 1c1.92-5.38-3.799-15.26-8-8 3.971 3.662 3.011 7.947 3 13h-5v-1l1-4-15 15c2.05-4.114 6.078-7.218 7.893-11.286 1.938-4.342-3.105-10.468-7.192-6.306-5.109 5.204-4.555 14.945-5.701 21.592h-1l-2-15h-2l3 17-12 10c-1.362-7.339-3.009-27.419 1.318-33.571 2.762-3.927 8.123-3.369 10.67-6.863 4.299-5.9 4.665-14.194 14.012-14.566l8-5-4 7 7 7 21-22c-7.773 3.287-9.855 1.814-17-2l2 3-9 7 2-4-1-6-11 6c3.155-3.784 5.615-9.381 9.339-12.482 5.131-4.27 11.408-3.972 13.661-11.518l-17 8c1.673-3.005 3.608-6.485 1.095-9.677-2.918-3.708-7.163 0.788-10.104-2.659-6.36-7.456-12.843-38.924 3.009-37.664v-4l2 3 1-7c-3.013 0.023-11.143-1.561-13.451 0.081-3.497 2.488-2.335 9.181-4.968 12.471-5.675 7.094-19.877 8.268-27.581 6.448 5.165-7.303 1.442-11.697 2-20-4.335 0.485-6.727 1.714-8 6m41-3 1 3h-2v5h-1l2-8m-32 2 1 1-1-1m-55 4 4 6-6 4c1.21 5.564 6.727 7.129 12 7l-2 8 6-2c0.761 6.02 2.88 13.714-5 15v5h-1l-3-3 1 6c-4.254-2.63-5.204-5.22-6-10-7.534 1.206-3.583 6.587-3 12h-1l-3-8h-1c-2.537 8.584-0.181 14.521 9 16 2.185-3.923 12.751-15.749 17.972-8.628 2.62 3.573-0.517 8.53 3.028 11.628l-1-4 3 1 2-17-5-1-6-26h4v-1l-9-2-1 2v1l1 3c-4.54-6.397-0.407-18.293-10-15m-4 1v1l3 1v-3l-3 1m55-1v7h-1l-1-7h2m-12 1-1 2 1-2m39 0v2h2l-2-2m-32 2 1 9h3l-1-3h1v7h-2c-2.674-4.514-4.634-8.007-2-13m-171 1.529c-14.352 3.294-27.943 17.653-28.91 32.471-1.176 18.019 18.054 31.34 34.91 27.471 13.227-3.037 25.969-16.806 26.909-30.471 1.233-17.924-15.041-33.571-32.909-29.471m107 0.471-10 12h3l10-7-3-5m271.02 1.117c4.331-0.304 8.99 5.66 10.99 8.883 6.425 10.352-0.492 24.658-13.005 25.609-4.927 0.374-18.987-3.911-17.745-10.648 0.902-4.893 6.926-10.114 9.861-13.961 2.307-3.024 5.601-9.581 9.899-9.883m-136.02-0.117c-2.434 1.904-10.55 2.002-11.248 4.307-1.029 3.396 3.768 5.503 5.302 7.813 2.157 3.248 1.088 8.671 5.267 10.704 6.969 3.39-0.121-11.359-1.321-12.824l12 4c3.433-10.339-6.293-7.638-10-14m-129 1v1h4l-4-1m24 3-1 1 1-1m-26 1v6h-1l-4-4 8 12-1-14h-2m4 0 4 5-1-5h-3m112 0-1 4 1-4m44 3v2l4 2c-3.864 2.121-13.442 8.421-4 10l-4 17c11.099-3.547 7.143-9.116 7-18l8-2-2-14-9 3m-63 31 3 5 4-5 6 6-8 10c4.674 11.52-7.814 12.441-7 23l-7 1 2-7c4.435-2.299 6.362-6.126 7-11l-7 2c1.469-2.551 5.892-5.168 6.37-7.952 0.886-5.168-6.338-0.125-7.37 0.952h-2l-1-1 2-6c-4.152-0.908-1.917-4.791-1-8l-5-9-12 4 2 10 2-6h1l-1 4 6 9-2-1 5 5-2-4 3 6 4 4h-4l-8-6-2 4v-14h-1v7h-1c-1.22-4.647-4.577-7.628-6.285-12.015-3.203-8.22-1.661-21.408 2.285-28.985h1c-1.629 7.902-1.329 14.104 8 16-4.168-8.965 1.041-26.919 14.62-22.321 4.34 1.469 4.699 7.194 5.294 10.897 1.304 8.123 6.61 13.925 0.086 21.424m-210-27.656c18.59-3.363 31.441 29.371 10 34.262-20.57 4.692-33.53-30.006-10-34.262m248.33 1.323 0.334 0.666-0.334-0.666m30.334 0-0.334 0.666 0.334-0.666m-101 2-0.334 0.666 0.334-0.666m120.33 38.333c16.411-1.737 16.372-11.278 22-25l-3-6h3l-1 5 3-9c-14.075-8.119-7.677 15.424-11.028 20.606-1.747 2.702-5.104 2.545-7.423 4.379-2.736 2.162-4.361 6.853-5.549 10.015m-182.67-32.333 0.334 0.666-0.334-0.666m1.667-0.667 1 1-1-1m160.67 2.333 0.666 0.334-0.666-0.334m51.333-0.333-11 15c6.892-0.463 15.976-3.945 18-11l-7-4m-180.67 2.667 0.334 0.666-0.334-0.666m141.67 1.333 1 1-1-1m-163 2 1 1-1-1m-8 1v3h1l-1-3m308.91 3.422c-4.145 0.817-8.002 5.796-10.91 8.542-7.464 7.049-21.585 14.924-26.252 24.075-2.113 4.144 3.746 11.516 8.253 10.705 3.614-0.651 7.187-4.698 9.999-6.863 8.244-6.348 22.934-14.121 28.338-23.052 2.425-4.006-4.8-14.319-9.428-13.407m-240.91-0.422 1 1-1-1m95 1 1 1-1-1m14 0 1 1-1-1m-128 1v1l-3 2-1-3h4m3 0 2 5h-1l-1-5m138 0 1 1-1-1m-73 1 1 1-1-1m-106 1 1 1-1-1m-68 1 1 2-1-2m82 3 1 1-1-1m161 0 1 1-1-1m-333 44c-12.066-1.054-23.875-9.713-35.96-9.552-4.601 0.062-10.085 8.158-8.738 12.552 3.243 10.576 20.245 18.839 26.698 28l-39-8-6 17c16.595 0.343 35.607 8.11 51.957 5.837 4.805-0.668 10.43-10.205 8.802-14.833-3.727-10.6-20.869-18.995-27.759-28.004 9.073 2.08 18.114 4.885 27 7.659 3.302 1.03 8.416 3.509 11.896 2.553 4.807-1.32 9.804-10.685 7.781-15.212-6.575-14.719-21.268-27.901-30.677-41-21.674 10.591 5.151 32.097 14 43m134-43-1 1 1-1m151 0 1 1-1-1m-63 2-1 1 1-1m48 0 1 1-1-1m104 10c0.412-1.396 0.877-2.563 0.887-4.04 0.104-14.349-19.878 1.431-7.039 4.231 1.885 0.412 4.209-0.268 6.152-0.191m-240.33-7.333-0.334 0.666 0.334-0.666m-73.667 22.333 3-7 5 2-3-15-1-1c-4.857 1.953-6.467 16.649-4 21m169-21v1h5l-5-1m34 0 1 1-1-1m-116 1 1 1-1-1m212 1 1 1-1-1m-220 1 1 1-1-1m5 0 1 1-1-1m16 0 1 1-1-1m79 0 1 1-1-1m120 1-1 2 1-2m-220 1 1 1-1-1m-13 1-1 3 1-3m269 0 1 1-1-1m-203 1-1 1 1-1m25 0 1 1-1-1m181 0-14 19h-1c-0.028-7.884-3.11-11.316-11-8l4 7-1 5 9 8h1c1.91-2.619 5.771-6.184 3-9 3.077-7.391 6.616-13.987 13-19l-3-3m-281 1-1 1 1-1m38 6h1v-2h1l3 20h-5l-3 3 4 18-3-1-3 3-1-1 1-3-3 1-3-11 3-1v-1l-7 3c-0.198-16.689-12.184 1.784-13 9l7 2v2l-4 2-1-5c-5.346 2.951-9.421 9.68-7.002 15.911 1.157 2.981 4.439 5.599 4.021 9.053-0.454 3.742-4.314 6.061-4.766 10.04-1.031 9.078 3.732 17.417 5.375 25.996 0.889 4.64-2.035 9.465 2.187 13.381 6.506 6.035 8.957-8.75 8.666-12.38-0.51-6.38-5.766-10.504-5.481-17.001l-3-6 7 3 11-3 1 15c23.82-6.427-6.737-54.484-13-26l3 5c-14.685-7.012-2.176-20.608-1-32l6.167 10.5 7.833-0.333 10.833 5.833 6.167 13v1l8 2h2l1 2v-3l3 1-1-17-7 2v4h-1l-7-7c3.915-2.394 4.431-5.622 5-10l10 3c3.092-5.028 5.093-8.491 11-10l-1-4v6l4 2 3-9c-10.899-1.52-4.688-5.436-7.151-13-1.544-4.74-4.997-8.987-7.849-13h-2c-1.534 6.693 1.808 9.505 5 15-6.309 1.766-11.201 16.084-14 22h-1l-1-9 5-5-8 1 1-4c9.173-3.7-3.287-11.76-4.511-17.004-1.022-4.379 1.182-8.909 2.511-12.996-4.292-0.385-9.453 0.596-11 5m149-5 1 1-1-1m-130.67 1.667 0.334 0.666-0.334-0.666m-15.333 0.333-1 1 1-1m232 1 1 1-1-1m-214 1 1 1-1-1m81 1.333c0.773 0 0.16 0.498-0.333 0.334l0.333-0.334m17-0.333-1 1 1-1m-102 1 1 1-1-1m2 0c-0.869 4.178-0.448 6.257 4 7l-2-7h-2m96.667 0.667-0.334 0.666 0.334-0.666m67.333-0.667v5h2l1-5h-3m48 1 1 1-1-1m21 0c-1.743 5.511-7.019 21.586-4 26v1l-2 2 15-8v-2c-4.659-1.771-6.108-3.406-8-8l3 1c1.09-5.251 0.182-8.503-4-12m-220 1 1 1-1-1m44.667 0.667-0.334 0.666 0.334-0.666m-157.67 0.333c-1.449 5.327 1.378 7.992 2.35 13 0.74 3.815-2.116 7.306-0.411 11.115 2.189 4.889 19.633 9.945 25.061 10.885l-1-15-6 1-1-7-9 2 1-4v-1l-3 1-1-8-5-4h-2m140 0 1 1-1-1m145 0 1 1-1-1m-250 1 1 1-1-1m360 56v-1c-6.729-5.127-14.963-12.661-14.617-22 0.777-20.933 27.294-20.888 35.239-5 2.566 5.132 2.932 11.353 3.378 17l10-5c-1.561-8.047-3.139-15.726-7.464-22.83-3.107-5.103-7.541-9.78-12.536-13.062-4.253-2.795-8.903-4.25-14-4.064-18.825 0.685-30.213 19.746-25.51 36.956 3.601 13.177 11.456 25.65 25.51 19m-389.33-54.667 0.666 0.334-0.666-0.334m138.33-0.333v4h2l-2-4m105 0-1 1 1-1m31 0-3 4 1-4h2m25 1 2 2v1l-5 1 3-4m30 1-1 1 1-1m-239 2 1 1-1-1m78 0 1 1-1-1m5 1 1 1-1-1m27 0-1 4 3-4h-2m-250 1c-3.407 6.778 2.377 8.815 8 11l-8-11m203 0 1 1-1-1m-21 2v1h3l-3-1m178-1 1 1-1-1m-304 1 1 1-1-1m106 0 1 1-1-1m143 0 1 1-1-1m57 0 1 1-1-1m-358 1 1 1-1-1m122 0 1 1-1-1m-26 1 1 1-1-1m80 0 1 1-1-1m12 0 2 2v-2h-2m-42 1 1 1-1-1m30 1 1 1-1-1m9 0 1 1-1-1m-91.667 1.667 0.334 0.666-0.334-0.666m53.667-0.667 1 1-1-1m79 0 1 1-1-1m119 1 1 1-1-1m-266 1 1 1-1-1m14 1 1 1-1-1m162 0-1 3c4.671-1.403 11.291 11.533 12 16l-13 5 7-7v-1c-8.018-0.131-8.447 7.659-14.213 11.435-3.621 2.372-9 2.849-11.372 6.79-3.127 5.195-2.642 14.226-7.415 17.775 0.373-3.796 2.522-17.991-1.319-19.643-8.17-3.513-11.04 10.176-5.681 14.643 0.703-5.492 0.736-11.005 6-14l-6 30h-1l-4-8-2 4c-4.178 0 0.533 18.097 9 14l6 22v1l-3-1-8-1v6l-5 1 2-2v-1l-7-14-7-2 9 21-6-5-2 7c-2.748-4.046-0.631-7.504-1.13-12-1.344-12.118-4.243-38.805 13.13-39l-1-9-3 1v-11l-5-1 10-4e-3 14-6.996 1 5h2l-1-9 25-23m90 0-16 22 6-2 5 4-2-8v-1c4.633-3.559 12.624-9.301 7-15m-331 8 2 5 18 6-1 2 3 3h1l-11-23-12 7m53-6 1 1-1-1m56 0-1 1 1-1m160 0v4h1l-1-4m-107 1v4h-2v-4h2m49 0 1 1-1-1m-68 1 1 1-1-1m98 0 1 1-1-1m-95 1 1 1-1-1m-35 1c4.133 3.461 6.898 10.034-1 9l1-9m-19 1v2h-2l2-2m166 0-1 1 1-1m-77 1 1 1-1-1m75 0-3 3 1-3h2m-187.67 1.667 0.334 0.666-0.334-0.666m269.33-0.334 0.666 0.334-0.666-0.334m24.333-0.333 1 1-1-1m-255.67 1.667 0.334 0.666-0.334-0.666m61.667-0.667 3 1-1 10c-3.256-3.099-4.812-7.138-2-11m178 0 1 1-1-1m-48 1-2 2 2-2m40 5c5.383-1.812 12.462 2.314 15-4-4.997 0.205-15.115-3.12-15 4m-214-4 1 1-1-1m246 4c-6.062-1.917-8.632-1.169-14 2l1 8 16 2 1-5 6 1-6-12-4 4m-315 0 6 4 5-1v-1h-4c-1.329-3.862-3.915-4.712-7-2m279-3 1 1-1-1m-301 1 1 1-1-1m33 0 1 1-1-1m84.667 0.333 0.666 0.334-0.666-0.334m77.333-0.333 1 5 3-1-4-4m75 0v12h-2l-1-6-5 1 8-7m-227 1 1 1-1-1m135 0-1 1 1-1m-63 1 1 1-1-1m20 0 2 2-2-2m58 0 1 1-1-1m8 0 1 1-1-1m-166.67 1.667 0.334 0.666-0.334-0.666m15.667-0.667 1 1-1-1m26 0-1 1 1-1m41 0 2 2-2-2m-102 1 1 1-1-1m26 0 1 1-1-1m66.667 0.333 0.666 0.334-0.666-0.334m86.666 0.334 0.334 0.666-0.334-0.666m-222.33 0.333 1 1-1-1m132 0 1 1-1-1m203 0-1 4 7 3v-5l-3 1-3-3m-110.67 1.667 0.334 0.666-0.334-0.666m-112.33 0.333-1 3h-1l-1-3h3m21 0 1 1-1-1m72 1-8 6 8-6m131 0-1 1 1-1m-364 1 5 11h-8v1c5.452 3.17 18.305 11.242 23 4l-20-16m151 0 1 1-1-1m152 0-3 3 3-3m-261 1 1 1-1-1m26 1 1 1-1-1m65 0 1 4h-1v-4m20 0 1 1-1-1m4 0 1 1-1-1m116 1-1 11 4-5h1c-0.852 4.729-4.496 8.851-1 13-0.345 3.491 0.378 5.033 4 4l2 6-1 6 14-4-2 24-4-5c-4.65 1.999-6.944 4.284-12 2l1-2-2-4-5 3c1.506 4.814 2.135 11.305 8 12v7c-4.954 2.897-9.835 4.471-9 11h1c3.017-6.855 11.248-18.555 18-22-0.246 11.561-7.198 17.706 5 25-2.417 5.435-6.775 6.872-10.366 11.188-7.579 9.11-7.89 17.478-20.804 20.985-3.487 0.947-14.383-2.479-9.083-7.388 2.687-2.489 7.155 0.409 10.253 0.447 4.758 0.058 8.474-2.344 12-5.232l-20 2 3-11c6.729 7.854 15.059 7.285 21-1-5.084-1.741-5.777-7.132-6-12l-10 5v-10c3.509-0.456 4.97-5.66 5.194-9 0.76-11.317 0.621-21.721 1.806-33l3 1-1-12-3 1c0-3.427-15.313 9.392-19-1h-1l-4 10h-1l1-7-6-2 2-5 8 1 7-9c5.028 1.259 4.338-4.4 4-8l12-2m91 0 1 1-1-1m-280 1c-5.501 4.051-5.797 8.613-7 15h1l6-15m75 0 1 1-1-1m127 0 1 1-1-1m57 0 1 1-1-1m-276 1 1 1-1-1m2 0 1 1-1-1m40 0 1 1-1-1m57 0 1 1-1-1m21 0 4 1 3 31h-1l-12-10c3.155-6.975 6.325-11.305 1-18l-3 12h-1l-1-13 10-3m37 0-1 1 1-1m-106 1 1 1-1-1m8 0 1 1-1-1m55 0-1 1 1-1m102 0 1 1-1-1m76 0 4 12-5-2 1 19 4 1 3-4 1 6c8.349-2.849 7.021-8.567 7-16h4l-5-13h-1l-3 5c-1.351-5.661-4.275-7.814-10-8m24 0 1 1-1-1m13 0 1 1-1-1m-329 1 1 1-1-1m77 2 3-2-3 2m6-2 1 1-1-1m7 0 1 1-1-1m103 0-2 3v-3h2m-141 1 1 1-1-1m4 0 1 1-1-1m3 0 1 1-1-1m22 0 1 1-1-1m23 0 1 1-1-1m-122.33 1.333 0.666 0.334-0.666-0.334m72.333-0.333 1 3h1l-2-3m-11 1 1 1-1-1m15 0 1 1-1-1m77 0 1 1-1-1m62 0 2 2v-2h-2m-297 22 7 8h3c-2.562-10.063 4.841-8.783 1-1l4-1-6 8 3 2h1c5.465-6.699 7.91-10.377 9-19l-3-2-3 1 7-17-13.927 16.453-9.073 4.547m192-21 1 1-1-1m246 0-4 3 1 8h1l4-7-2-4m-335 1 1 1-1-1m-52 1 1 1-1-1m2.667 0.333 0.666 0.334-0.666-0.334m31.333-0.333 1 1-1-1m78 0 1 1-1-1m28 0 1 1-1-1m-98.333 1.667-0.334 0.666 0.334-0.666m161-0.334 0.666 0.334-0.666-0.334m-88.334 1.334 0.334 0.666-0.334-0.666m26.667-0.667 1 1-1-1m152 8 5-8c-3.697 1.875-4.484 3.969-5 8m-181-7 1 1-1-1m36.333 0.667 0.334 0.666-0.334-0.666m-68.333 0.333 1 1-1-1m-24 1 1 1-1-1m294 1v4-4m-38 1 1 1-1-1m-221 2 1 1-1-1m25 0 1 1-1-1m4 0 1 1-1-1m3 0 1 1-1-1m82 1-1 3 1-3m20 0 3 3-3-3m7 0 1 1-1-1m133 0-1 11c3.831-2.625 4.166-6.748 3-11h-2m-247 1 1 1-1-1m51 0 1 1-1-1m65 0 1 1-1-1m2 0 1 1-1-1m94 0 1 1-1-1m53 0-1 4 3-4h-2m-61 1 1 1-1-1m10 0 1 1-1-1m-212 1 1 1-1-1m3 0v1h3l-3-1m17 0 1 1-1-1m184 1v5l7 6v1l-4 2 3 7h2l4-5v3h1l1-4v-12l-4 3c-2.21-4.669-4.869-6.262-10-6m-264 0v3h1l1-3h-2m110 0 1 1-1-1m4 0-2 1v1l2-2m242 1 5.499 10.972 10.082 4.256 5.066 19.588-5.873 7.277 1.226 11.907c12.711-4.057 25.177-16.118 36-23.86 3.316-2.372 9.874-5.407 11.306-9.465 1.843-5.22-3.212-14.389-4.306-19.675l-40-1.014-19 0.014m-288 0-1 2 1-2m-117 1v2h2l-2-2m36 0 11 9c-4.656-1.345-10.298-3.682-11-9m73 0 1 1-1-1m18 1 1 1-1-1m-81 1v1h-3l3-1m95 0 1 1-1-1m153 0-1 1 1-1m56 14c2.847-1.77 15.364-7.937 15.364-11.039 0-3.507-4.544-2.188-6.322-1.233-4.538 2.441-7.48 7.553-9.042 12.272m-316-13 1 5h-4l3-5m80 0 1 1-1-1m2 0 1 1-1-1m-26 1v4h1l-1-4m96 0 1 1-1-1m87 1 1 1-1-1m76 0 1 1-1-1m-393 1-3 3 1-3h2m395 0 1 1-1-1m-390 1 1 1-1-1m268 0 1 3 4-2-1 19h1l4-8c-0.587 5.311-3.757 23.466-9 25v-6l-17 3c-6.496-10.679-5.522-24.806 4-33l-5 16c8.065 0.038 14.217-7.079 14-15l-3 1 7-3m100 0v6l3-5-3-1m6 0 1 1-1-1m-397 1v3h5l-5-3m146 0-2 3 2-3m64 0 1 1-1-1m112 0 1 1-1-1m89 0-6 4c3.163 0.303 6.085-0.37 6-4m-313 1 2 9h-1c-1.847-3.191-4.257-6.261-1-9m69 0 1 1-1-1m-19 1 1 1-1-1m54 0 1 1-1-1m150 0-11 18 1 1 6-5 4 3 2-17h-2m-290 1 1 1-1-1m338 0 1 1-1-1m-93 1-1 8 3-1-2-7m209 1c-4.346 5.905-11.757 12.283-19 14l-4-15 23 1m-409 0-1 7 1-7m37 0 1 1-1-1m65 10h3l1-10c-6.474 1.041-4.47 4.964-4 10m191-10 1 1-1-1m51 12h1l8-12c-6.371 0.507-8.281 6.237-9 12m-298-11 2 2-2-2m256 0 1 1-1-1m-266 1 2 3-2-3m60 0 2 2-2-2m203 0 1 1-1-1m-357 1 1 1-1-1m60.667 0.667-0.334 0.666 0.334-0.666m162.33-0.667-1 2h2l-1-2m94 7h-8l-2 11 3-1c1.031 5.843 11.891-6.382 12.389-10 0.804-5.837-7.406-8.433-5.389 0m37-3 1 5h1l6-9-8 4m-314.67-2.333 0.334 0.666-0.334-0.666m-87.333 0.333c-5.395 12.357-4.381 21.446 3 33l-7-2 4 6v2l-9 3c2.376 8.91 9.167 8.989 17 8l-9 16c-5.068-0.666-7.918 0.495-7 6l-3-2 1 4c-14.336 3.963-2.146 15.938-6 26 11.998-6.872 14.799-12.936 10-26 4.538-1.248 6.199 0.462 9 4-4.978 1.072-1.099 5.717 2 7.278 5.296 2.666 10.701-2.542 12-7.278l-12 5c-0.266-8.212 5.457-13.942 5.768-22 0.675-17.51-5.309-32.322-9.768-49h1l3 3-1 3 5 1-8-12 16 13c-3.351-11.823-3.091-16.811-17-20m158 2v1l4-1h-4m15-1 2 2-2-2m41 0 1 1-1-1m201 0c-0.507 4.673-1.84 8.193 0.736 12.576 3.806 6.473 9.937 9.272 10.264-0.576 6.628 2.412 20.55-3.127 13-11l-3 6h-1c-1.315-7.646-8.909-6.143-14-3l-6-4m6 0 1 1-1-1m-365 1v1h3v-1h-3m56 0 7 21-7-5-4 1-6-4-4-7 3 1 3-5-4-2h12m10 0 1 1-1-1m29 0 1 1-1-1m2 0v1l3 1-3-2m17 0 1 1-1-1m47 0v1l3 1-3-2m93 0 1 1-1-1m-246.33 1.667-0.334 0.666 0.334-0.666m313.33-0.667 1 1-1-1m-218 1 1 1-1-1m3 0 1 1-1-1m226 0-2 6h-1l1-6h2m22 0 1 1-1-1m-293 1-1 1 1-1m67.333 0.667 0.334 0.666-0.334-0.666m125.67-0.667 1 1-1-1m41 0-1 1 1-1m40 0-1 1 1-1m29 0-1 4h-1l2-4m-358 3h1l1-2 2 10h1l2-2 2 7h-5l8 12c-10.54 3.086 0.132 13.461 5 17l-6 9h-1l-1-3c-3.653 1.542-11.161 3.958-13.933-0.434-2.062-3.267-0.095-6.325-3.067-9.566 0.963-5.455 3.799-6.806 8-10h-6c1.589-4.643 2.924-7.92 8-9l-1-7-4-12 2-2 1 2m43-2 1 1-1-1m5 0 1 1-1-1m50 0 1 1-1-1m51 0 1 1-1-1m46 0 1 1-1-1m115 0 1 1-1-1m-264 1 1 1-1-1m170 0 1 1-1-1m-274.33 1.333 0.666 0.334-0.666-0.334m102.33-0.333 1 1-1-1m128 0 1 10-4-10h3m-192.33 2.333 0.666 0.334-0.666-0.334m60.333-0.333 2 2-2-2m325 2-8-2 8 2m8.667-1.333-0.334 0.666 0.334-0.666m6.333 18.333 16-1c1.658-5.312 3.493-23.706-7.907-16.343-5.689 3.675-6.911 11.254-8.093 17.343m-436-18 1 1-1-1m106 0 1 1-1-1m300 0 1 1-1-1m-266 2 1 1-1-1m60.333 0.667 0.334 0.666-0.334-0.666m-213.33 0.333 1 1-1-1m119 0 1 1-1-1m-3 1 1 1-1-1m-55 1 3 1-3 2-1-2 1-1m13 0-3 4 3-4m140 0 1 1-1-1m205 4h6c-1.95-3.513-4.589-4.203-6 0m-393-3 1 1-1-1m44 0 1 1-1-1m125.33 0.667 0.334 0.666-0.334-0.666m241.67-0.667 1 1-1-1m-347.67 1.667 0.334 0.666-0.334-0.666m31.667-0.667 1 1-1-1m30 0 1 1-1-1m50 1-1 1 1-1m161.33 0.667 0.334 0.666-0.334-0.666m-82.333 0.333 1 1-1-1m109 0 1 1-1-1m-372 1 1 1-1-1m184 0v3h-2v-3h2m208 0 1 1-1-1m-333.33 2.667-0.334 0.666 0.334-0.666m186.33-0.667 1 1-1-1m-183 1 2 4-2-4m203 0-5 3 5-3m63 33 10-1-6-4c12.691-9.539 14.147-12.954 18-28-12.505 2.578-19.158 22.263-22 33m-136-32 1 1-1-1m35 0c-0.95 5.464 0.404 7.921 4 12l-1 1-2-2-4 5c1.178-5.418-2.426-12.848 3-16m-115 1 1 1-1-1m83 0 1 1-1-1m15 0-7 9 7-9m120 0 1 1-1-1m63 0 1 1-1-1m-21 1v2h-2l2-2m-96 15-4-1v5l-10 5v1l2 2 4-1c-1.369 12.045-6.391 23.304-17 30l1-2-2 2h-1l6-18c4.645-0.409 8.499-1.232 10-6l-14-2c0.697 6.279-5.396 22.734-13 18l-3 20h-1c-2.312-9.972-2.033-18.808-3.174-29-1.504-13.431-6.286-21.055 9.174-28v4l-3-1-2 12-2 5 3-6h1c-0.481 4.864-2.846 9.208 3 11 0.851-6.729 1.601-28.876 8-31l-5 27h5l6-23c10.89 6.039 17.506 5.315 21-8 6.868 2.272 3.292 9.269 1 14m49-14 1 1-1-1m-273 1 1 1-1-1m48 2 3-2-3 2m321-2 1 1-1-1m-122 1 1 1-1-1m2 0 1 1-1-1m17 1 2 2-2-2m82 0-3 3 3-3m-242 1-1 2h2l-1-2m55.667 0.667-0.334 0.666 0.334-0.666m123.33-0.667 1 1-1-1m-158 1 1 1-1-1m185 0-2 3 2-3m2 0-1 1 1-1m11 0-3 3 1-3h2m-223 1 1 1-1-1m-121 1 2 5v-5h-2m35 0 16.606 3.657 12.394 18.343h4v1l-4 2 12-1v1h-2v1c3.291-1.359 5.06-5.584 9-5.667 3.584-0.074 13.795 2.874 8 6.667l3 1v3l1-6c5.623 2.08 9.28 5.687 12 11l-3-4c-6.465 4.141-15.96-3.571-23.852-0.976-5.495 1.807-1.656 6.911 1.852 7.976l-1 5 1 1 3-1 1 1-1 6c-3.492-1.057-4.432-2.418-5-6-13.298 1.397-4.278-2.245-8.583-9.194-1.881-3.035-6.5-5.33-6.417-8.806l-18-2-5-7 4 3c-1.34-8.302-17.964-10.733-11-21m299 0c4.706 8.444 0.573 15.181-7 20l2-15 3 1 2-6m28 0.333c0.773 0 0.16 0.498-0.333 0.334l0.333-0.334m-340 0.667-3 1v1l5 1-2-3m156 0 1 1-1-1m-144 1 1 3h1l-2-3m55.333 0.667 0.334 0.666-0.334-0.666m200.67-0.667c-0.155 7.275-2.291 18.247-9 22 1.577-6.897 1.147-19.637 9-22m40 0 1 2-1-2m-90 1 1 1-1-1m25 0 1 1-1-1m141 5 3 4-1 3 24 9c-1.513-7.346-9.537-12.925-16-16l2-5-12 5m-400-4 1 1-1-1m125 0 1 1-1-1m34 0v2h2v-2h-2m102 2 3-1-3 1m8-2 1 1-1-1m-225 1 1 1-1-1m128 0 1 1-1-1m-155 1-1 1v1l1 1h1l1-1v-1l-2-1m19.667 0.333 0.666 0.334-0.666-0.334m-45.667 0.667c2.214 6.714 8.151 10.654 6 18-4.017-2.818-7.428-13.281-6-18m78 0 1 1-1-1m104 0 1 1-1-1m-56 1 1 1-1-1m144 0 1 1-1-1m2 0 1 1-1-1m3 0 1 1-1-1m-327 1 1 1-1-1m138 0 1 1-1-1m93 0 1 1-1-1m201 0 1 1-1-1m-301 1 1 1-1-1m102 0 1 1-1-1m89 0 1 1-1-1m92 0 1 1-1-1m-236 1 1 1-1-1m52 0 1 1-1-1m94 0 1 1-1-1m-145 2 2 3-2-3m229 0 1 1-1-1m-323 1 1 1-1-1m24 1 1 1-1-1m26 2h-3l3 3-3 1-2-2 1-4 4 2m87-2-1 12h-1c-1.346-4.555-1.522-8.551 2-12m-198 1c-1.458 17.094 17.952 17.704 30 21v-4c-8.182-0.448-19.187-10.521-24-17h-1l2 6-5-6h-2m61 0 1 1-1-1m48 0 1 1-1-1m355.67 0.333 0.666 0.334-0.666-0.334m-379.67 0.667 1 1-1-1m258 0 1 1-1-1m36 0 1 1-1-1m-289 1v1l2 3h1l1-2-4-2m-100 1 1 1-1-1m42 0v3h2v-3h-2m219 0 3 2-3-2m29 0 2 3-2-3m58 0 1 1-1-1m2 1 1 1-1-1m-227 1 2 2-2-2m38.667 0.333 0.666 0.334-0.666-0.334m16.333-0.333c4.229 7.481 12.417 14.892 11 24 3.028 1.971 3.672 3.457 3 7-6.037-7.276-16.131-20.85-14-31m299 0 1 1-1-1m-458 1v2l-2-2h2m85 0 1 1-1-1m46.333 0.667 0.334 0.666-0.334-0.666m67.667-0.667 1 1-1-1m-175 1 1 1-1-1m59 0 1 1-1-1m228 0 1 1-1-1m-74 1 1 1-1-1m87 0 1 1-1-1m69 0 1 1-1-1m54 0 1 1-1-1m-420 1.333c0.773 0 0.16 0.498-0.333 0.334l0.333-0.334m171-0.333 1 7h1l2-6-4-1m198.67 0.333 0.666 0.334-0.666-0.334m-352.67 0.667v1l-6 1v-1l6-1m280 0 1 1-1-1m52 0 1 1-1-1m66 11h-2l-8-7 1.609 9.576-5.609 13.424c12.286 2.225 8.162-6.032 14.548-12.505 4.954-5.023 10.654-6.93 12.452-14.495-5.835 0.925-10.799 5.635-13 11m-351-10 1 1-1-1m-1 2v1l4 2-1-3 4 1-1-3-6 2m298-2 1 1-1-1m3 0 2 2-5 5c3.801 10.922 1.99 12.86 13 18l-1-3h3v1c-2.786 13.469 9.862 6.632 14.946 8.604 4.184 1.623 4.737 6.551 5.054 10.396h2c0.141-5.83 1.763-10.06 8-11-7.445-7.376-17.465-6.832-27-4l-2-4 16-1-1-6h-21v-1l4-2-1-2 15-1c-4.216-8.821-16.734-6.025-25-10m8.333 0.667 0.334 0.666-0.334-0.666m-367.33 1.333v1l-5 1 5-2m3-1-1 1 1-1m14 0 3 2v-1l-3-1m70 0 1 1-1-1m30 0 1 1-1-1m86 0 1 1-1-1m-216 1-1 1 1-1m251 0 1 1-1-1m119 0 1 1-1-1m-395 1 1 1-1-1m127 0 2 2v-2h-2m113 0 1 1-1-1m153 0 1 1-1-1m-236 1 1 1-1-1m75.333 0.667 0.334 0.666-0.334-0.666m134.67 7.333 1 15c-3.447 1.144-5.887 6.42-0.852 7.663 3.526 0.87 6.635-1.836 9.852-2.663l-1-3c12.134-6.852-1.143-14.371-6-21 2.943-0.634 3.512-3.234-0.028-3.889-3.318-0.614-12.923-0.838-15.861 0.861-2.736 1.582-4.415 8.139-0.861 9.695 4.029 1.763 10.04-1.279 13.75-2.667m11-8 1 1-1-1m-169.33 1.333 0.666 0.334-0.666-0.334m-206.67 0.667 1 1-1-1m10 0 1 1-1-1m3 0 1 1-1-1m14.667 0.333 0.666 0.334-0.666-0.334m128.67 0.334 0.334 0.666-0.334-0.666m-108.33 2.333 3-1-3 1m13-2 1 1-1-1m106 0 1 1-1-1m67 0 1 1-1-1m-236 1 4 7c0.296-3.883-0.291-5.569-4-7m42 2 3-1-3 1m14-1 4 3v1l-5 2v2l1 1 6-1 4 13-11-6c-1.969-5.931-24.275-12.277-28-5l12 2v1l-8 2v1l7-1c-2.563 5.3-7.484 7.644-5 14l7-3v8l-4-4h-2l1 6c4.598-0.041 8.941-0.568 12.871-3.213 1.547-1.041 3.823-4.637 5.94-4.16 6.078 1.372-1.277 11.975-3.982 13.255-4.125 1.953-7.781-2.1-11.829-1.972-4.588 0.144-8.617 4.071-12.91 5.352-3.045 0.909-5.959-0.778-9.09-0.262v2c3.557 3.926 1.582 6.962-1 11l10-6v5l7 3c-0.707-10.503 8.009-8.362 13-16l1 3 7-2-14 13c0.967 3.404 2.667 3.356 6 3l2 9c-4.525 7.288-14.614 11.826-23 12v1l3 5c-3.592 1.709-4.93 3.002-4 7 4.985-0.808 8.471 2.234 13 1.914 6.481-0.459 9.35-7.778 11-12.914l-6 6c2.784-7.355 8.129-20.042 15.576-23.678 4.961-2.422 9.988 0.033 14.424-4.322l-2 1v-1l5-8-18 1-1-7v-1l3-8 7 1c-1.617-2.26-2.973-3.301-5-1h-1l-1-18c4.473 2.336 5.899 4.416 11 2l-1 4h2l3-7-1 4c8.517 1.139 14.037-5.607 7.786-12.91-5.991-7-14.934-9.693-23.786-11.09m115 0 1 1-1-1m-127 1v1h5v-1h-5m165.33 0.667 0.334 0.666-0.334-0.666m79.667-0.667c0.323 1.984 0.72 3.982 0.654 6.004-0.493 15.142-15.155 2.801-22.639 1.811-4.289-0.568-7.232 1.624-11.015 3.185l2-3-9 6c3.763-5.888 13.441-13.758 21.039-13.247 3.448 0.232 6.439 3.172 9.961 2.626 3.123-0.484 5.813-2.741 9-3.379m116 3-6-2c3.058-0.71 4.268-0.669 6 2m-366-2 1 1-1-1m11 0 1 1-1-1m157 0 1 1-1-1m-58 1 1 1-1-1m241 0 1 1-1-1m-409 1 1 1-1-1m56 0 1 1-1-1m7 0 1 1-1-1m79 1v1l5 1v-1l-1-2-4 1m50-1 1 1-1-1m102 1 1 1-1-1m-195 1 1 1-1-1m72 0.333c0.773 0 0.16 0.498-0.333 0.334l0.333-0.334m53-0.333v2h2v-2h-2m3 0 1 1-1-1m86 0-2 2 2-2m-290 1 1 1-1-1m242 0-1 2h2l-1-2m-92 1-1 1 1-1m123 0 1 1-1-1m50 0 6 5c0.688-4.505-1.985-4.868-6-5m-244 1 1 1-1-1m53 0 1 1-1-1m273 0v3h-1l1-3m-436.33 2.667-0.334 0.666 0.334-0.666m30.333-0.667 1 3-1-3m20 0 2 2-2-2m184.33 0.667 0.334 0.666-0.334-0.666m20.667-0.667 1 1-1-1m157 0 1 1-1-1m-8 16c0.964 4.914-8.405 7.238-12 10v1c11.05-2.675 23.19 0.76 25-14h-4c1.764-2.308 3.932-4.001 5.837-6.171 3.895-4.433-0.039-8.123-4.748-5.082-4.978 3.216-7.626 9.141-10.089 14.253m-320.33-14.667 0.666 0.334-0.666-0.334m53.333-0.333 2 2v-2h-2m155 0v1h-3l3-1m114 0v3h-1l1-3m-370 1 2 5v1c-4.215 2.735-16.113 14.982-8.682 19.817 8.51 5.538 17.33-8.694 19.682-14.817l-13 1c2.415-4.099 6.4-9.925 0-12m374 0 1 1-1-1m-410.33 1.667-0.334 0.666 0.334-0.666m56.666 0 0.334 0.666-0.334-0.666m-64.333 0.333 1 1-1-1m52 0 1 1-1-1m39 3-5-1c2.399-1.708 3.28-1.344 5 1m344-3 1 1-1-1m48 0 1 1-1-1m-310 1 1 1-1-1m33 0 1 1-1-1m-151 1 1 1-1-1m384 0 1 1-1-1m-392 6 7-4-7 4m134-5 1 1-1-1m261 0c-6.216 2.212-11.82 1.33-14 9l12-3-4-1 1-3 8 3-3-5m-338 1v3h-1l1-3m5 0 3 5h-1l-2-5m58 0 1 1-1-1m-16 3-3-2 3 2m61-2 1 1-1-1m86 0 15 12-1 2 5-2c-0.667 8.837-8.488 13.913-16 17l-1-4 3-1v-1c-10.795 2.826-12.901 19.434-19 28l-11-5h-1l-4 12 15-3-13 11h4l-14 7 6-25-5-1v-1c7.645-2.957 10.913-9.64 17.304-13.771 4.409-2.85 7.561 1.028 11.549-0.417 10.166-3.681-0.296-16.936-4.853-19.812l-2 7c-5.814 1.08-12.237 0.535-12 8-2.391 1.18-4.509 3.573-7.046 4.343-4.321 1.311-4.784-3.309-4.323-6.344 0.944-6.212 8.5-16.317 15.369-11.999 7.808-10.026 14.789-7.596 25-5l-2-8m-259 1 1 1-1-1m141 0 1 1-1-1m131 0-1 1 1-1m-169 1 1 1-1-1m36 0 1 1-1-1m247 0 1 1-1-1m-265 1-1 1 1-1m154 0 3 4-3-4m-233 1v1l-5 1 5-2m34 0 1 1-1-1m321 0-1 1 1-1m6 0 1 1-1-1m17 0 1 1-1-1m-342 1 1 1-1-1m209.33 0.667 0.334 0.666-0.334-0.666m-153.33 0.333 1 1-1-1m17 0 1 1-1-1m219 0-2 1v1l2-2m29 1 2 2-5 3 2-4-7 10 3-1v1c-6.725 2.609-14.842 7.024-19.694 12.483-1.98 2.227-4.306 7.181-0.878 9.361 1.712 1.089 5.513-0.096 7.572 0.156l3 28-2-4c-4.164 1.241-6.736 2.729-8 7h4v1h-3c1.895 5.285 5.807 7.552 11 5l1 4c-2.435 1.997-0.434 3.327 2 4 2.818-13.134 5.778-28.14-3-40 5.755 2.599 8.882 4.166 15 2-0.933-5.428-6.018-7.112-11-8v-7h8l-5 2v4l7 1 19 20 1-3-10-12 10.959-4.838 8.648 3.101 10.393-9.263-1-5c7.447 3.995 9.981 9.376 18.981 3.84 1.685-1.036 4.408-2.513 4.102-4.879-1.539-11.9-17.655-17.857-27.083-19.961l-1 7c10.964-1.442 13.709 4.744 23 9-7.606 10.169-17.641-2.391-27.985-1.016-6.412 0.852-5.178 5.638-8.564 9.673-5.664 6.749-16.955 9.096-22.451 1.343 6.989-0.696 15.172-3.128 20.275-8.209 6.124-6.096-1.68-9.426-7.275-7.791l1 3-3 3-6-1 3-4h-9c3.946-1.192 10.409-0.403 13.385-3.706 6.114-6.786-7.853-7.856-11.385-7.294m14.333-0.333 0.334 0.666-0.334-0.666m-351.33 0.333 1 1-1-1m239 0-1 4h1l2-2c0.933 6.546-6.061 10.548-12 9v5l7-1v1l-2 2 11-6c-1.805 5.853-9.76 9.313-15 12l3-6c-13.306-1.759-3.05-16.662 6-18m23 0 1 1-1-1m78 0.333 0.333 0.334c-0.493 0.164-1.106-0.334-0.333-0.334m-283 0.667 1 1-1-1m71 0 4 5-4-5m172 0 1 1-1-1m-297 1 2 5-5-2 1 9 5 2c1.256-3.446 3.107-7.27 0-10l1-3-4-1m196 1 1 1-1-1m86.667 0.667-0.334 0.666 0.334-0.666m43.333-0.667 1 1-1-1m-428 1-3 10c3.425-2.793 5.225-5.826 3-10m4 0 1 1-1-1m132 0-11.209 12.4-17.791 1.6 2 9 8 6 22.272-3.067 9.728-14.933c-2.032-7.531-6.483-8.592-13-11m-84 1 1 1-1-1m244 0 2 2v-2h-2m-137 1-1 1 1-1m174 0 1 1-1-1m-270 2 3 4v-4h-3m101.33 0.667 0.334 0.666-0.334-0.666m109.67-0.667 2 2-2-2m34 0 1 1-1-1m-305 1 1 2h1l1-2h-3m4 0v1c3.404 2.697 3.184 4.879 3 9h1l3-4-7-6m271 0 1 1-1-1m-211 1 1 1-1-1m377 2 3-1-3 1m-438-1-1 6 3-1-2-5m365 3 4-3-4 3m62-3-1 1 1-1m-318 1 1 1-1-1m188 0v3h1l-1-3m13 0c4.737 14.976-8.692 32.984-23 37.836-3.45 1.169-7.393 0.335-11 1.164v-1l9-9-2 6 8-6 4 1-1-15 16-15m49 0 1 1-1-1m4 0 1 1-1-1m48 0v2h2v-2h-2m-418 2 5 2-5-2m342-1 1 1-1-1m-223.33 1.333 0.666 0.334-0.666-0.334m249.33-0.333 1 1-1-1m-101.67 1.667 0.334 0.666-0.334-0.666m-177.33 0.333v2h-2l2-2m308 0-1 1 1-1m-380 1v2h2v-2h-2m85.667 0.333 0.666 0.334-0.666-0.334m112.33-0.333 1 1-1-1m253 2-1-2h1l3 1-5 5 1 11c-6.275-4.934-4.96-10.313-2-17l3 2m-472-1v2h2l-2-2m420.67 0.333 0.666 0.334-0.666-0.334m-152.67 0.667 1 1-1-1m-164 1 4 3-4-3m162 0 1 1-1-1m122 0c0.062 5.574 0.973 9.155 7 10l-6 20h-1l-9-16c-5.974 2.17-9.039 4.568-15 1l12-12v4h6l6-7m-380 1 1 1-1-1m63 0v1c-3.41 1.275-7.966 3.826-9-1h9m290 0-2 2v-2h2m15 0-1 1 1-1m-180 1 1 1-1-1m121 0 1 1-1-1m40 0v1l-4 1v-1l4-1m-135 1-4 2 3 3 3-4-2-1m58 0-1 1 1-1m105 0 1 1-1-1m39 0-1 1 1-1m-332 1c-5e-3 7.742-0.312 14.131-7 19l3-10-4 1c0.218-5.115 3.654-7.744 8-10m6 0 1 1-1-1m235 0-1 1 1-1m29 0-3 2 3-2m-315 19-1-10-16 8 7-13 11 4c-2.869-3.503-6.408-5.862-11-5-3.675-3.808-10.31 9.561-10.114 12.941 0.32 5.523 15.966 3.723 20.114 3.059m379-18v1h-4l4-1m-250 1 1 1-1-1m21 0 1 1-1-1m97.333 0.667 0.334 0.666-0.334-0.666m151.67-0.667 1 1-1-1m2 0 1 1-1-1m-377 1-1 8v1l6 1v-8l-5-2m276 2-8 6 1 4c-4.68-1.838-17.855-6.281-16.673 3.907 0.357 3.072 4.228 5.431 5.673 8.093-3.65 1.921-4.518 3.934-4 8-4.159 0.427-14.903-1.65-13.559-8.104 2.613-12.54 23.482-26.98 35.559-21.896m-320 1 3-2-3 2m126-2v2l-2-2h2m44 0v1h3l-3-1m85.333 0.667 0.334 0.666-0.334-0.666m6.667-0.667 1 1-1-1m20 0-2 5 4-4-2-1m-296 1v4h1l1-4h-2m202 2 3-2-3 2m76.667-1.667 0.666 0.334-0.666-0.334m52.333-0.333-1 2 1-2m34 0 3 5 1-4v-1h-4m-344 1-1 1 1-1m52 0 1 1-1-1m90.667 0.333 0.666 0.334-0.666-0.334m103.33-0.333 1 1-1-1m94 0 1 1-1-1m-323 1-2 5c2.481-1.539 3.557-2.364 2-5m147 0 1 1-1-1m143 0 1 1-1-1m39 0-1 1 1-1m12.667 0.333 0.666 0.334-0.666-0.334m-177.67 0.667 1 1-1-1m95.667 0.333 0.666 0.334-0.666-0.334m64.333-0.333 1 1-1-1m-92.667 1.667 0.334 0.666-0.334-0.666m-170.33 0.333 1 1-1-1m275 0 1 1-1-1m-264 1c1.471 7.77 3.963 8.874 11 12l-2 7 17-5c-0.887-11.394-16.284-13.92-26-14m32 0 1 1-1-1m151 0v1h3l-3-1m5 0-1 2 1-2m35 0-3 3 3-3m104 0-1 1 1-1m-170 2 1 1-1-1m75 0-1 2 1-2m28 0 1 1-1-1m90 0 1 1-1-1m-455 1 1 1-1-1m101 0 1 1-1-1m33 0 4 3v-1l-4-2m9 0 1 1-1-1m143 0-1 1 1-1m-280 1 1 1-1-1m98.333 0.667 0.334 0.666-0.334-0.666m162.67-0.667 1 1-1-1m98 0 1 1-1-1m-289 1 1 1-1-1m118 0 1 1-1-1m15 0 1 1-1-1m-13 1 1 1-1-1m106 0 1 1-1-1m-113 5-1 6h-1l-9-5 3 3-1 3 3 3 3-1v3h1l4-1 14 7h-3l3 5-11 1 5 4v1l-20-11-1 3h-1l1-4c-3.369-2.576-2.455-6.141-2-10l-5 1 1 2v1l-3-15 20 4m-12-3.667c0.773 0 0.16 0.498-0.333 0.334l0.333-0.334m151 0.667-2 4 4-4h-2m-195 1 1 1-1-1m160 0-4 5 4-5m9 0 1 1-1-1m-274 1 1 1-1-1m34 0 1 1-1-1m156 0 1 1-1-1m66 0-2 1v1l2-2m-77 1-1 1 1-1m96 0 1 1-1-1m150 0 1 11c4.992-1.438 9.341-3.4 12-8l-13-3m-343 2v1l4-1h-4m168 0 1 1-1-1m48.333 0.667 0.334 0.666-0.334-0.666m1.667-0.667 1 1-1-1m-290 2v2l2-2h-2m169 0-1 1 1-1m193 0v2h2v-2h-2m-336 1-4 7-1-6 5-1m113 0 1 1-1-1m78 0 5 2v-1l-5-1m8 0 1 1-1-1m83 0 1 1-1-1m-64 1-1 1 1-1m-214 2 1 1-1-1m184 0-1 2h2l-1-2m64 0 1 1-1-1m13 0-1 5 6-1-5-4m-271 1-2 8 2-8m146.67 0.667-0.334 0.666 0.334-0.666m44.333-0.667 1 1-1-1m152 0 1 1-1-1m-234 2 2 4-3 8c-0.66-2.582-2.22-7.461 1-8v-4m-43 1 1 1-1-1m3.333 0.667 0.334 0.666-0.334-0.666m49.667-0.667 1 1-1-1m7 0 2 7-2-7m4 0 1 1-1-1m16 0-1 1 1-1m46 0 1 4h1l-2-4m-140 5-9-1c3.472-3.239 6.476-3.101 9 1m-22-3 1 1-1-1m246 0 1 1-1-1m-194 1-3 2v-1l3-1m48 0 1 1-1-1m61 1 1 1-1-1m126 0 1 1-1-1m-232 1-1 1 1-1m56.667 0.333 0.666 0.334-0.666-0.334m3.333-0.333 1 1-1-1m-181.33 1.333 0.666 0.334-0.666-0.334m262.33-0.333v1h-3l3-1m147 0c2.457 7.569 15.587 12.493 21 6-7.032-6.35-11.68-6-21-6m-422 1-2 18 15-14c-1.843-5.249-8.323-2.889-13-4m18 0v1h3l-3-1m-3 1v2l2-2h-2m72.667 0.667-0.334 0.666 0.334-0.666m77.333-0.667 10 4v1l-12-4 2-1m2 0-1 1 1-1m118 0 1 1-1-1m-254 1 1 1-1-1m148 0 1 1-1-1m108 0 1 1-1-1m-250 2 1 1-1-1m-26 1 3 2-3-2m28 0 1 1-1-1m230 0 8 6-8-6m28 0-1 2h-1l-1-2h3m-181.67 1.667 0.334 0.666-0.334-0.666m85.667-0.667 1 3-1-3m-186 1v2h2v-2h-2m279 0-1 1 1-1m54 0 1 1-1-1m-214 2 1 1-1-1m-20 2-2 3 2-3m-29 2 1 1-1-1m47.667 0.333 0.666 0.334-0.666-0.334m2.333 0.667v1l2 1c-2.342 0.153-6.374-0.576-7.954 1.603-3.524 4.862 5.19 8.887 8.935 8.061 3.76-0.83 8.753-8.395 4.415-11.395-1.904-1.317-5.258-0.419-7.396-0.269m270-1 1 1-1-1m-409 1 1 1-1-1m20 0v1h3l-3-1m5 0 1 1-1-1m313 0 1 1-1-1m55 0 1 1-1-1m16 1-1 3 5 2-4-5m-386 1 1 1-1-1m146 0-1 1 1-1m92 6 17-5c-4.912-1.309-13.973 0.698-17 5m-81-4 1 1-1-1m66 0 1 1-1-1m168 0v1l4 3h1l2-4h-7m-401 1 1 1-1-1m108 0 1 1-1-1m-73 1v2h2l-2-2m130 0 1 1-1-1m152 0 1 1-1-1m-58 1 1 1-1-1m60 0 1 3-1-3m66 1 1 4h1l-2-4m-30 1 1 1-1-1m-319 1 1 1-1-1m3 0v1h3l-3-1m59 0 8 7v-1l-8-6m211.67 0.333 0.666 0.334-0.666-0.334m43 0 0.666 0.334-0.666-0.334m82.666 0.334 0.334 0.666-0.334-0.666m-64.333 0.333-1 1v2l3-3h-2m9 0-2 3 2-3m-373 1 1 1-1-1m51 0v1h4l-4-1m293.67 1.333 0.666 0.334-0.666-0.334m9.333-0.333 1 1-1-1m53 0-1 1 1-1m-27 1 1 1-1-1m-324 2 1 1-1-1m258 0-1 3h1v-3m45 0 1 1-1-1m35 0 1 1-1-1m-56 1 1 1-1-1m-238 1 1 1-1-1m209 2 3-2-3 2m-206-1 5 3v-1l-5-2m292 0v2h2v-2h-2m-62 3 1 1-1-1m39 0 1 1-1-1m-206 1 1 1-1-1m24 0 1 1-1-1m90 1 3 2v-1l-3-1m23 0v2h2v-2h-2m90 0v1l-4 1 4-2m-340 1-1 3h1v-3m234.33 0.667 0.334 0.666-0.334-0.666m-104.33 0.333 1 1-1-1m112 0 1 1-1-1m-277.33 1.333 0.666 0.334-0.666-0.334m229.33-0.333 1 1-1-1m141 1-1 1 1-1m-368 1 1 1-1-1m11 1 1 1-1-1m87 1 1 1-1-1m227 4v1l4 4 4-1-8-4m-259 3 1 1-1-1m215 0 1 1-1-1m103 0 1 1-1-1m4.667 0.333 0.666 0.334-0.666-0.334m-242.33 4.334 0.334 0.666-0.334-0.666m125.67-0.667 1 1-1-1m11 0-4 3c2.744 0.431 4.716 0.154 4-3m-188 3 1 1-1-1m166 0 4 2-4-2m-157 2v1l4-1h-4m155 1 1 1-1-1m-2 1 1 1-1-1m-7.333 1.333 0.666 0.334-0.666-0.334m-124.67 5.667v1h5l-5-1m6 1h3l-1-2-2 2m100-2v1h4l-4-1m29 0 1 1-1-1m7.333 0.667 0.334 0.666-0.334-0.666m-153.33 0.333 1 1-1-1m23 0 1 1-1-1m86 2v1l7-3-7 2m-108 0 1 3 3-3h-4m51 0 1 1-1-1m-8.667 1.667 0.334 0.666-0.334-0.666m-29.333 0.333 1 1-1-1m35 0 1 1-1-1m-48 2v4l14 2 1-3-13 1 8-3-10-1m110.67-0.667 0.666 0.334-0.666-0.334m-93.667 1.667c3.685 4.217 14.685 1.001 20 1v-2l-20 1m23 1v1l11-3-11 2m-74 18 31-17c-9.875-2.333-27.917 7.412-31 17m-7-16-1 4h1v-4m63 1 4 5-1-5h-3m-22 2 1 1-1-1m49 0 1 1-1-1m-1 3 1 1-1-1m88 3 3 3-3-3m-182 4 1 1-1-1m63.667 0.333 0.666 0.334-0.666-0.334m16.333 6.667 7-3-7 3m-84-1v2h2v-2h-2m-58 1c7.421 10.193 26.581 6.549 38 7.019 10.748 0.443 20.667 5.764 31 8.232 13.18 3.147 32.858 1.843 45-4.251v-1c-19.027 2.797-40.012 10.703-57-3l10-5c-21.618 2e-3 -45.299 3.167-67-2m123 6 18-5c-4.675-1.434-15.015 1.074-18 5m236-6 5 4c-0.177-3.436-1.723-3.741-5-4m-241 3v1l4-1h-4m92.333 1.667 0.334 0.666-0.334-0.666m-89.666 0.666 0.666 0.334-0.666-0.334m-60.667 2.667v1l4-1h-4m77-1 1 1-1-1m2.667 1.333 0.666 0.334-0.666-0.334m-4 1 0.666 0.334-0.666-0.334m104.33 6.667 1 1-1-1m-133 2v1h4l-4-1m110-1 1 1-1-1m16 0v1h4l-4-1m100 0v2h2l-2-2m-276 1v2h2v-2h-2m141 0c9.567 11.524 31.9 14.401 40 28l-2-2h-1l-1 2h-1l-2-2c-0.615 3.487-7.436-0.046-9.588-1.477-9.083-6.042-14.886-16.41-25.412-20.523l2-4m23 0 1 1-1-1m2 0v1h6l-6-1m110.67 2.333 0.666 0.334-0.666-0.334m-180.67 2.667-2 2 2-2m150 0-2 3v1l5-1v-2l-3-1m-160.33 1.333 0.666 0.334-0.666-0.334m102.33-0.333-2 1v1l2-2m-95 2-1 1 1-1m13 0 1 1-1-1m19 4 1 1-1-1m-53 2v1l4 1v-3l-4 1m120.67-0.667 0.666 0.334-0.666-0.334m70.333-0.333-1 1 1-1m-164.67 1.667 0.334 0.666-0.334-0.666m58.667-0.667 1 1-1-1m99 0v1l-3 1 3-2m-196.67 1.667 0.334 0.666-0.334-0.666m102.67-0.667 1 1-1-1m24 0 1 4h1l1-4h-3m-120 1 5 1v-1h-5m93 0 1 1-1-1m42.667 0.333 0.666 0.334-0.666-0.334m-144.67 0.667v2h2l-2-2m5 0v2h2v-2h-2m60 0v2h3v-2h-3m-74 4 5-2-5 2m144-2 1 1-1-1m-26 1v1h4l-4-1m-74 1 1 1-1-1m162 0v1h3l-3-1m-118 2 1 1-1-1m31 0 1 1-1-1m20 0 2 3c-2.251-0.473-3.118-0.86-2-3m65 2v1l6-2-6 1m-141-1 1 1-1-1m23 0v2h2l-2-2m-13.333 2.333 0.666 0.334-0.666-0.334m4.333-0.333-5 3v1c2.664-0.366 6.201-0.745 5-4m-7 1 1 1-1-1m-91 2 3 2-3-2m58 2 1 1-1-1m2 0v1h4l-4-1m-28 2 4 3-4-3m62 1-5 4 5-4m3 1v2l2-2h-2m-68 1 1 2h1l1-2h-3m146 1 4 1-4-1m-124.67 1.667 0.334 0.666-0.334-0.666m13.667 0.333v1h3l-3-1m5 0v1h5l-5-1m-12 1v1h3l-3-1m38 2-1 1 1-1m2 4-1 1 1-1m-65 4v1l7 2z"
      fill="#151515" />
  </g>
</svg>